<?xml version="1.0" standalone="no"?><!DOCTYPE svg PUBLIC "-//W3C//DTD SVG 1.1//EN" "http://www.w3.org/Graphics/SVG/1.1/DTD/svg11.dtd"><svg t="1569493952023" class="icon" viewBox="0 0 1024 1024" version="1.1" xmlns="http://www.w3.org/2000/svg" p-id="2989" xmlns:xlink="http://www.w3.org/1999/xlink" width="200" height="200"><defs><style type="text/css"></style></defs><path d="M667.977884 211.396524m-52.261192 0a52.261193 52.261193 0 1 0 104.522385 0 52.261193 52.261193 0 1 0-104.522385 0Z" fill="#bfcbd9" p-id="2990"></path><path d="M814.599563 949.963311H548.154583v-78.841816c224.055346-18.378519 400.161048-206.010718 400.161048-434.813122C948.315631 195.340724 752.96039 0 511.992742 0S75.684369 195.340724 75.684369 436.308373C75.684369 664.51558 250.890017 851.770337 474.117894 871.019876v78.986986H204.88565a37.134481 37.134481 0 0 0-37.018344 37.018344A37.119964 37.119964 0 0 0 204.88565 1024h609.713913a37.119964 37.119964 0 0 0 37.018345-37.018345 37.134481 37.134481 0 0 0-37.018345-37.018344zM255.825796 692.460801a360.93612 360.93612 0 1 1 115.177862 77.665939 361.473248 361.473248 0 0 1-115.177862-77.665939z" fill="#bfcbd9" p-id="2991"></path><path d="M714.432278 497.933029a201.786271 201.786271 0 1 0-201.786272 201.786271 201.786271 201.786271 0 0 0 201.786272-201.786271z m-329.535853 0a127.749582 127.749582 0 1 1 127.749581 127.749582 127.894752 127.894752 0 0 1-127.749581-127.749582z" fill="#bfcbd9" p-id="2992"></path></svg>