<?xml version="1.0" standalone="no"?><!DOCTYPE svg PUBLIC "-//W3C//DTD SVG 1.1//EN" "http://www.w3.org/Graphics/SVG/1.1/DTD/svg11.dtd"><svg t="1554892716453" class="icon" style="" viewBox="0 0 1024 1024" version="1.1" xmlns="http://www.w3.org/2000/svg" p-id="2035" xmlns:xlink="http://www.w3.org/1999/xlink" width="200" height="200"><defs><style type="text/css"></style></defs><path d="M119.03 510c1.057-34.42 29.293-62 63.97-62h297V320h64v128h319c35.346 0 64 28.654 64 64h-64v128h64V512H544v128h-64V512H183v128h-64V510h0.03zM425 18h174c35.346 0 64 28.654 64 64v174c0 35.346-28.654 64-64 64H425c-35.346 0-64-28.654-64-64V82c0-35.346 28.654-64 64-64z m0 64v174h174V82H425zM64 640h174c35.346 0 64 28.654 64 64v174c0 35.346-28.654 64-64 64H64c-35.346 0-64-28.654-64-64V704c0-35.346 28.654-64 64-64z m0 64v174h174V704H64zM425 640h174c35.346 0 64 28.654 64 64v174c0 35.346-28.654 64-64 64H425c-35.346 0-64-28.654-64-64V704c0-35.346 28.654-64 64-64z m0 64v174h174V704H425zM786 640h174c35.346 0 64 28.654 64 64v174c0 35.346-28.654 64-64 64H786c-35.346 0-64-28.654-64-64V704c0-35.346 28.654-64 64-64z m0 64v174h174V704H786z" p-id="2036"></path></svg>