<?xml version="1.0" standalone="no"?><!DOCTYPE svg PUBLIC "-//W3C//DTD SVG 1.1//EN" "http://www.w3.org/Graphics/SVG/1.1/DTD/svg11.dtd"><svg t="1568946884034" class="icon" viewBox="0 0 1024 1024" version="1.1" xmlns="http://www.w3.org/2000/svg" p-id="2904" xmlns:xlink="http://www.w3.org/1999/xlink" width="200" height="200"><defs><style type="text/css"></style></defs><path d="M633.6 531.2c55.466667-42.666667 87.466667-108.8 87.466667-179.2 0-121.6-98.133333-224-221.866667-228.266667-61.866667-2.133333-121.6 21.333333-166.4 64-44.8 42.666667-68.266667 102.4-68.266667 164.266667 0 72.533333 36.266667 140.8 93.866667 183.466667-121.6 57.6-209.066667 189.866667-211.2 320v21.333333H853.333333v-21.333333c0-136.533333-91.733333-268.8-219.733333-324.266667zM189.866667 832c8.533333-106.666667 91.733333-224 204.8-268.8 10.666667-4.266667 17.066667-12.8 19.2-25.6 0-10.666667-4.266667-21.333333-14.933334-27.733333-57.6-34.133333-93.866667-96-93.866666-162.133334 0-51.2 19.2-98.133333 57.6-134.4 36.266667-36.266667 85.333333-53.333333 136.533333-53.333333 100.266667 2.133333 181.333333 87.466667 181.333333 185.6 0 64-32 123.733333-87.466666 157.866667-8.533333 6.4-14.933333 17.066667-12.8 27.733333 2.133333 10.666667 8.533333 19.2 19.2 23.466667 117.333333 42.666667 204.8 164.266667 213.333333 270.933333H189.866667zM104.533333 746.666667H36.266667c6.4-85.333333 53.333333-149.333333 128-183.466667 8.533333-4.266667 14.933333-12.8 17.066666-23.466667 0-10.666667-4.266667-19.2-10.666666-25.6-38.4-27.733333-59.733333-70.4-59.733334-117.333333 0-74.666667 57.6-138.666667 132.266667-145.066667 10.666667 0 19.2-8.533333 19.2-21.333333 0-10.666667-8.533333-21.333333-21.333333-21.333333h-2.133334c-96 8.533333-170.666667 89.6-170.666666 185.6 0 53.333333 25.6 102.4 64 138.666666C49.066667 582.4 0 669.866667 0 770.133333v19.2h104.533333c10.666667 0 21.333333-10.666667 21.333334-21.333333-2.133333-10.666667-10.666667-21.333333-21.333334-21.333333zM893.866667 535.466667c38.4-34.133333 66.133333-85.333333 66.133333-138.666667 0-96-74.666667-177.066667-170.666667-185.6h-2.133333c-10.666667 0-21.333333 8.533333-21.333333 21.333333 0 10.666667 8.533333 19.2 19.2 21.333334 74.666667 6.4 132.266667 70.4 132.266666 145.066666 0 46.933333-21.333333 89.6-59.733333 117.333334-8.533333 6.4-12.8 14.933333-10.666667 25.6 0 10.666667 8.533333 19.2 17.066667 23.466666 74.666667 34.133333 121.6 98.133333 128 183.466667h-68.266667c-10.666667 0-21.333333 10.666667-21.333333 21.333333s8.533333 21.333333 21.333333 21.333334H1024v-19.2c0-102.4-44.8-189.866667-130.133333-236.8z" p-id="2905"></path></svg>