<?xml version="1.0" standalone="no"?><!DOCTYPE svg PUBLIC "-//W3C//DTD SVG 1.1//EN" "http://www.w3.org/Graphics/SVG/1.1/DTD/svg11.dtd"><svg t="1554973633662" class="icon" style="" viewBox="0 0 1024 1024" version="1.1" xmlns="http://www.w3.org/2000/svg" p-id="2020" xmlns:xlink="http://www.w3.org/1999/xlink" width="200" height="200"><defs><style type="text/css"></style></defs><path d="M351.36 448h-64a32 32 0 0 0 0 64h64a32 32 0 0 0 0-64zM351.36 640h-64a32 32 0 0 0 0 64h64a32 32 0 0 0 0-64zM352.64 256h-64a32 32 0 0 0 0 64h64a32 32 0 0 0 0-64zM799.36 448h-320a32 32 0 0 0 0 64h320a32 32 0 0 0 0-64z" p-id="2021"></path><path d="M896 64H192a64 64 0 0 0-64 64v768a64 64 0 0 0 64 64h704a64 64 0 0 0 64-64V128a64 64 0 0 0-64-64z m0 775.04a56.32 56.32 0 0 1-56.32 56.32H248.32a56.32 56.32 0 0 1-56.32-56.32V184.96A56.32 56.32 0 0 1 247.68 128h592a56.32 56.32 0 0 1 56.32 56.32v654.72z" p-id="2022"></path><path d="M799.36 256h-320a32 32 0 0 0 0 64h320a32 32 0 0 0 0-64zM799.36 640h-320a32 32 0 0 0 0 64h320a32 32 0 0 0 0-64z" p-id="2023"></path></svg>