<?xml version="1.0" standalone="no"?><!DOCTYPE svg PUBLIC "-//W3C//DTD SVG 1.1//EN" "http://www.w3.org/Graphics/SVG/1.1/DTD/svg11.dtd"><svg t="1551405484692" class="icon" style="" viewBox="0 0 1026 1024" version="1.1" xmlns="http://www.w3.org/2000/svg" p-id="2927" xmlns:xlink="http://www.w3.org/1999/xlink" width="200.390625" height="200"><defs><style type="text/css"></style></defs><path d="M238.934 442.216a45.511 45.511 0 1 0 91.022 0 45.511 45.511 0 1 0-91.023 0zM464.972 442.216a45.511 45.511 0 1 0 91.022 0 45.511 45.511 0 1 0-91.022 0zM691.011 442.216a45.511 45.511 0 1 0 91.022 0 45.511 45.511 0 1 0-91.023 0z" p-id="2928"></path><path d="M895.81 603.022c25.79-48.545 37.926-101.641 39.443-156.255C935.253 240.45 745.623 72.06 512 72.06 276.86 73.576 87.23 240.45 87.23 446.767c0 125.914 69.783 241.21 188.112 310.993l-22.755 135.016c-1.517 9.103 1.517 16.688 9.102 22.756 4.551 3.034 9.102 4.551 13.653 4.551 3.034 0 7.585-1.517 10.62-3.034l183.561-97.09c13.653 1.517 28.824 1.517 42.477 1.517h19.721c34.892 72.817 107.71 122.88 192.664 122.88 118.33 0 213.902-95.574 213.902-213.903-1.517-47.028-16.687-91.022-42.477-127.43zM515.034 775.964h-4.551c-15.17 0-30.34-1.517-45.511-3.034-4.551 0-9.102 0-13.653 3.034l-148.67 78.886 18.204-104.675c1.517-9.102-3.034-19.722-12.136-24.273-109.227-60.681-175.976-163.84-175.976-279.135 0-182.044 169.908-329.197 377.742-329.197s377.742 147.153 377.742 329.197c0 40.96-9.102 83.437-25.79 119.846 0 0-1.516 0-1.516-1.517-1.518-1.517-4.552-3.034-6.069-4.55-3.034-3.035-6.068-4.552-9.102-7.586-1.517-1.517-4.551-3.034-6.068-4.551-3.034-1.517-7.585-4.551-10.62-6.068-1.516-1.517-4.55-3.034-6.067-3.034-3.034-1.517-7.586-4.551-12.137-6.068-1.517-1.518-4.55-1.518-6.068-3.035-4.551-1.517-7.585-3.034-12.136-4.55-1.517 0-4.551-1.518-6.068-1.518-4.551-1.517-9.103-3.034-15.17-3.034-1.518 0-3.035 0-4.552-1.517-6.068-1.517-13.653-3.034-19.721-3.034-7.585 0-15.17-1.517-22.756-1.517-57.647 0-110.744 22.756-151.704 62.199s-62.198 94.056-62.198 151.703c0 13.654 1.517 25.79 4.551 39.443v7.585z m209.351 122.88c-74.335 0-136.533-48.545-159.289-115.294 0-1.517-1.517-3.034-1.517-4.551-1.517-4.552-3.034-9.103-3.034-12.137v-1.517c-1.517-10.62-3.034-21.238-3.034-33.375 0-92.539 75.852-168.39 168.391-168.39 10.62 0 21.239 1.516 31.858 3.033h1.517c3.034 0 7.585 1.517 10.62 3.034 1.516 0 4.55 1.517 6.067 1.517 3.035 1.517 6.069 1.517 7.586 3.035 3.034 1.517 6.068 1.517 7.585 3.034 3.034 1.517 4.55 1.517 7.585 3.034l9.102 4.55c1.517 1.518 4.551 3.035 6.068 4.552 3.034 1.517 6.069 3.034 9.103 6.068l4.55 4.551c3.035 3.034 6.069 4.551 9.103 7.585 1.517 1.517 3.034 1.517 3.034 3.034l10.62 10.62c25.789 30.34 42.476 68.266 42.476 110.743-1.517 91.023-75.852 166.874-168.39 166.874z" p-id="2929"></path><path d="M832.095 704.664H747.14V619.71c0-12.137-10.62-22.756-22.756-22.756s-22.755 10.62-22.755 22.756v107.71c0 12.136 10.619 22.755 22.755 22.755h107.71c12.136 0 22.755-10.62 22.755-22.756s-10.619-22.755-22.755-22.755z" p-id="2930"></path></svg>