<?xml version="1.0" standalone="no"?><!DOCTYPE svg PUBLIC "-//W3C//DTD SVG 1.1//EN" "http://www.w3.org/Graphics/SVG/1.1/DTD/svg11.dtd"><svg t="1551320081345" class="icon" style="" viewBox="0 0 1024 1024" version="1.1" xmlns="http://www.w3.org/2000/svg" p-id="5793" xmlns:xlink="http://www.w3.org/1999/xlink" width="200" height="200"><defs><style type="text/css"></style></defs><path d="M736 404.224c85.376 0 160.96 38.784 212.352 98.624 6.912-25.344 10.88-51.52 10.88-78.464C959.296 225.28 759.232 64 512.384 64 265.472 64 62.08 224 64 424.32c1.152 113.024 58.88 205.44 141.248 263.424 11.136 9.216 47.744 27.136-21.888 124.8-15.488 37.568 63.616 29.76 76.48 28.352 78.848-9.152 113.664-52.032 159.936-60.224 17.536 2.24 37.76 3.2 56.192 3.648a273.92 273.92 0 0 1-20.16-102.336c0.064-153.408 125.44-277.76 280.128-277.76z m0 55.552c-123.776 0-224.128 99.52-224.128 222.208 0 122.752 100.352 222.208 224.064 222.208 123.776 0 224.064-99.456 224.064-222.208 0-122.688-100.288-222.208-224-222.208z m0 388.864c-92.8 0-168.064-74.624-168.064-166.656 0-35.904 11.712-69.12 31.36-96.32l233.792 231.936c-27.52 19.392-60.8 31.04-97.152 31.04z m136.64-70.4L638.848 546.368a167.68 167.68 0 0 1 97.024-31.04c92.8 0 168.064 74.624 168.064 166.656 0 35.968-11.712 69.12-31.36 96.256z" p-id="5794"></path></svg>