<?xml version="1.0" encoding="utf-8"?>
<!-- Svg Vector Icons : http://www.sfont.cn -->
<!DOCTYPE svg PUBLIC "-//W3C//DTD SVG 1.1//EN" "http://www.w3.org/Graphics/SVG/1.1/DTD/svg11.dtd">
<svg version="1.1" xmlns="http://www.w3.org/2000/svg" xmlns:xlink="http://www.w3.org/1999/xlink" x="0px" y="0px" viewBox="0 0 1000 1000" enable-background="new 0 0 1000 1000" xml:space="preserve">
<metadata> Svg Vector Icons : http://www.sfont.cn </metadata>
<g><path d="M843,761.3h-16.4L892,924.6L632.2,761.3H451c-81.2,0-147-65.8-147-147v-196c0-81.2,65.8-147,147-147h392c81.2,0,147,65.8,147,147v196C990,695.5,924.2,761.3,843,761.3z M957.3,418.3c0-63.1-51.2-114.3-114.3-114.3H451c-63.1,0-114.3,51.2-114.3,114.3v196c0,63.1,51.2,114.3,114.3,114.3h195L826.7,843l-49-114.3H843c63.1,0,114.3-51.2,114.3-114.3L957.3,418.3L957.3,418.3z M565.3,108h-392c-72.2,0-130.7,58.5-130.7,130.7V402c0,72.2,58.5,130.7,130.7,130.7H206L157,647l114.3-72.7v42.1L91.7,728.7L157,565.4c-81.2,0-147-65.8-147-147v-196c0-81.2,65.8-147,147-147h424.6c81.2,0,147,65.8,147,147v16.3H696C696,166.5,637.5,108,565.3,108z"/></g>
</svg>