<?xml version="1.0" standalone="no"?><!DOCTYPE svg PUBLIC "-//W3C//DTD SVG 1.1//EN" "http://www.w3.org/Graphics/SVG/1.1/DTD/svg11.dtd"><svg t="1560478762279" class="icon" style="" viewBox="0 0 1024 1024" version="1.1" xmlns="http://www.w3.org/2000/svg" p-id="1994" xmlns:xlink="http://www.w3.org/1999/xlink" width="200" height="200"><defs><style type="text/css"></style></defs><path d="M509.866667 576c-19.2 0-34.133333-14.933333-34.133334-34.133333v-183.466667c0-19.2 14.933333-34.133333 34.133334-34.133333 19.2 0 36.266667 14.933333 36.266666 34.133333v183.466667c0 19.2-17.066667 34.133333-36.266666 34.133333zM509.866667 736c-19.2 0-34.133333-14.933333-34.133334-36.266667v-29.866666c0-19.2 14.933333-36.266667 34.133334-36.266667 19.2 0 36.266667 14.933333 36.266666 36.266667v29.866666c0 19.2-17.066667 36.266667-36.266666 36.266667z" p-id="1995"></path><path d="M512 966.4c-59.733333 0-245.333333-89.6-341.333333-202.666667-100.266667-119.466667-93.866667-294.4-93.866667-313.6V234.666667c0-53.333333 38.4-98.133333 89.6-108.8l324.266667-64c14.933333-2.133333 27.733333-2.133333 42.666666 0l324.266667 64c51.2 10.666667 89.6 55.466667 89.6 108.8v215.466666c0 19.2 6.4 194.133333-93.866667 313.6-96 113.066667-281.6 200.533333-341.333333 202.666667 2.133333-2.133333 2.133333 0 0 0z m2.133333-87.466667s0 2.133333 0 0c27.733333-2.133333 189.866667-72.533333 275.2-172.8 81.066667-96 74.666667-247.466667 74.666667-253.866666v-221.866667c0-12.8-8.533333-21.333333-19.2-23.466667l-324.266667-64h-8.533333l-324.266667 64c-10.666667 2.133333-19.2 12.8-19.2 23.466667V452.266667c0 6.4-6.4 157.866667 74.666667 253.866666 78.933333 102.4 241.066667 170.666667 270.933333 172.8 0 2.133333 0 0 0 0z" p-id="1996"></path></svg>